# xmcd
#
# Track frame offsets: 
#        182
#        11277
#        23055
#        35762
#        48152
#        58485
#        69210
#        81722
#        89867
#        101850
#        114095
#        124085
#        135607
#        143895
#        151512
#        163625
#        173117
#        182000
#        192280
#        203600
#
# Disc length: 2848 seconds
#
# Revision: 5
# Processed by: cddbd v1.5.2PL0 Copyright (c) Steve Scherf et al.
# Submitted via: ExactAudioCopyFreeDBPlugin 1.0
#
DISCID=100b1e14
DTITLE=Johnny Cash - Best of the Sun Years 1955-61
DYEAR=1955
DGENRE=Country
TTITLE0=Cry, Cry, Cry
TTITLE1=I'm So Doggone Lonesome
TTITLE2=Folsom Prison Blues
TTITLE3=I Walk the Line
TTITLE4=There You Go
TTITLE5=Train of Love
TTITLE6=Next in Line
TTITLE7=Wreck Of The Old '97
TTITLE8=Home of the Blues
TTITLE9=Give My Love to Rose
TTITLE10=Ballad of a Teenage Queen
TTITLE11=Big River
TTITLE12=Guess Things Happen That Way
TTITLE13=Come in Stranger
TTITLE14=You're the Nearest Thing to Heaven
TTITLE15=Luther Played the Boogie
TTITLE16=Katy Too
TTITLE17=Straight A's In Love
TTITLE18=Oh Lonesome Me
TTITLE19=Get Rhythm
EXTD=
EXTT0=
EXTT1=
EXTT2=
EXTT3=
EXTT4=
EXTT5=
EXTT6=
EXTT7=
EXTT8=
EXTT9=
EXTT10=
EXTT11=
EXTT12=
EXTT13=
EXTT14=
EXTT15=
EXTT16=
EXTT17=
EXTT18=
EXTT19=
PLAYORDER=
